<svg width="46" height="46" viewBox="0 0 46 46" fill="none" xmlns="http://www.w3.org/2000/svg">
<path d="M46 23C46 10.2977 35.7022 0 23 0C10.2977 0 0 10.2977 0 23C0 35.7022 10.2977 46 23 46C35.7022 46 46 35.7022 46 23ZM2.0909 23C2.0909 11.4519 11.4519 2.0909 23 2.0909C34.5481 2.0909 43.9091 11.4519 43.9091 23C43.9091 34.5481 34.5481 43.9091 23 43.9091C11.4519 43.9091 2.0909 34.5481 2.0909 23Z" fill="#3C5A99"/>
<path d="M23.8831 36.2752V23H28.2636L28.9557 18.6008H23.8831V16.3949C23.8831 15.247 24.2595 14.1513 25.9071 14.1513H29.2003V9.76044H24.525C20.5941 9.76044 19.5215 12.3489 19.5215 15.937V18.5988H16.8242V23H19.5215V36.2752H23.8831V36.2752Z" fill="#3C5A99"/>
</svg>
