<svg width="97" height="24" viewBox="0 0 97 24" fill="none" xmlns="http://www.w3.org/2000/svg">
<path d="M38.72 8.74V7.2H32.98V17H34.59V13.024H38.58V11.484H34.59V8.74H38.72ZM45.6721 10V10.994C45.1401 10.266 44.3141 9.818 43.2221 9.818C41.3181 9.818 39.7361 11.414 39.7361 13.5C39.7361 15.572 41.3181 17.182 43.2221 17.182C44.3141 17.182 45.1401 16.734 45.6721 15.992V17H47.1841V10H45.6721ZM43.4601 15.74C42.2001 15.74 41.2481 14.802 41.2481 13.5C41.2481 12.198 42.2001 11.26 43.4601 11.26C44.7201 11.26 45.6721 12.198 45.6721 13.5C45.6721 14.802 44.7201 15.74 43.4601 15.74ZM52.2505 17.182C53.6225 17.182 54.8125 16.468 55.4005 15.362L54.0985 14.62C53.7625 15.264 53.0765 15.698 52.2365 15.698C51.0045 15.698 50.0665 14.76 50.0665 13.5C50.0665 12.24 51.0045 11.302 52.2365 11.302C53.0765 11.302 53.7625 11.722 54.0705 12.38L55.3725 11.624C54.8125 10.532 53.6225 9.818 52.2505 9.818C50.1365 9.818 48.5545 11.414 48.5545 13.5C48.5545 15.572 50.1365 17.182 52.2505 17.182ZM57.574 14.144H63.146C63.174 13.948 63.202 13.724 63.202 13.514C63.202 11.498 61.774 9.818 59.688 9.818C57.49 9.818 55.992 11.428 55.992 13.5C55.992 15.6 57.49 17.182 59.8 17.182C61.172 17.182 62.222 16.608 62.866 15.656L61.62 14.928C61.284 15.418 60.654 15.796 59.814 15.796C58.694 15.796 57.812 15.236 57.574 14.144ZM57.56 12.912C57.77 11.862 58.54 11.19 59.674 11.19C60.584 11.19 61.466 11.708 61.676 12.912H57.56ZM68.4944 9.818C67.4024 9.818 66.5764 10.266 66.0444 10.994V7.2H64.5324V17H66.0444V15.992C66.5764 16.734 67.4024 17.182 68.4944 17.182C70.3984 17.182 71.9804 15.572 71.9804 13.5C71.9804 11.414 70.3984 9.818 68.4944 9.818ZM68.2564 15.74C66.9964 15.74 66.0444 14.802 66.0444 13.5C66.0444 12.198 66.9964 11.26 68.2564 11.26C69.5164 11.26 70.4684 12.198 70.4684 13.5C70.4684 14.802 69.5164 15.74 68.2564 15.74ZM76.6548 17.182C78.7128 17.182 80.3508 15.572 80.3508 13.5C80.3508 11.414 78.7128 9.818 76.6548 9.818C74.6108 9.818 72.9588 11.414 72.9588 13.5C72.9588 15.572 74.6108 17.182 76.6548 17.182ZM76.6548 15.712C75.4228 15.712 74.4708 14.774 74.4708 13.5C74.4708 12.226 75.4228 11.288 76.6548 11.288C77.8868 11.288 78.8388 12.226 78.8388 13.5C78.8388 14.774 77.8868 15.712 76.6548 15.712ZM85.0219 17.182C87.0799 17.182 88.7179 15.572 88.7179 13.5C88.7179 11.414 87.0799 9.818 85.0219 9.818C82.9779 9.818 81.3259 11.414 81.3259 13.5C81.3259 15.572 82.9779 17.182 85.0219 17.182ZM85.0219 15.712C83.7899 15.712 82.8379 14.774 82.8379 13.5C82.8379 12.226 83.7899 11.288 85.0219 11.288C86.2539 11.288 87.2059 12.226 87.2059 13.5C87.2059 14.774 86.2539 15.712 85.0219 15.712ZM96.2731 17L93.0811 13.43L96.1611 10H94.3131L91.5971 13.094V7.2H90.0851V17H91.5971V13.766L94.4671 17H96.2731Z" fill="#017EFA"/>
<path d="M20.625 2.625H3.375C2.96016 2.625 2.625 2.96016 2.625 3.375V20.625C2.625 21.0398 2.96016 21.375 3.375 21.375H20.625C21.0398 21.375 21.375 21.0398 21.375 20.625V3.375C21.375 2.96016 21.0398 2.625 20.625 2.625ZM18.4594 8.09766H16.9617C15.7875 8.09766 15.5602 8.65547 15.5602 9.47578V11.2828H18.3633L17.9977 14.1117H15.5602V21.375H12.6375V14.1141H10.193V11.2828H12.6375V9.19687C12.6375 6.77578 14.1164 5.45625 16.2773 5.45625C17.3133 5.45625 18.2016 5.53359 18.4617 5.56875V8.09766H18.4594Z" fill="#017EFA"/>
</svg>
