<svg width="15" height="19" viewBox="0 0 15 19" fill="none" xmlns="http://www.w3.org/2000/svg">
<path d="M3.39303 5.95508H11.5331C13.0254 5.95508 14.2464 7.17608 14.2464 8.66842V16.8084C14.2464 17.6224 13.7037 18.1651 12.8897 18.1651H2.03636C1.22236 18.1651 0.679688 17.6224 0.679688 16.8084V8.66842C0.679688 7.17608 1.90069 5.95508 3.39303 5.95508Z" stroke="url(#paint0_linear_1523_277)" stroke-linecap="round" stroke-linejoin="round"/>
<path d="M3.39453 4.59833C3.39453 2.29199 5.1582 0.52832 7.46454 0.52832C9.77088 0.52832 11.5346 2.29199 11.5346 4.59833" stroke="url(#paint1_linear_1523_277)" stroke-linecap="round" stroke-linejoin="round"/>
<path d="M8.81881 10.0244L6.10547 12.7378" stroke="url(#paint2_linear_1523_277)" stroke-linecap="round" stroke-linejoin="round"/>
<path d="M6.10547 10.0244L8.81881 12.7378" stroke="url(#paint3_linear_1523_277)" stroke-linecap="round" stroke-linejoin="round"/>
<defs>
<linearGradient id="paint0_linear_1523_277" x1="8.14138" y1="4.03313" x2="8.76148" y2="25.6671" gradientUnits="userSpaceOnUse">
<stop stop-color="#FD749B"/>
<stop offset="1" stop-color="#281AC8"/>
</linearGradient>
<linearGradient id="paint1_linear_1523_277" x1="7.87155" y1="-0.11233" x2="7.98644" y2="7.10309" gradientUnits="userSpaceOnUse">
<stop stop-color="#FD749B"/>
<stop offset="1" stop-color="#281AC8"/>
</linearGradient>
<linearGradient id="paint2_linear_1523_277" x1="7.59781" y1="9.59731" x2="7.75089" y2="14.4039" gradientUnits="userSpaceOnUse">
<stop stop-color="#FD749B"/>
<stop offset="1" stop-color="#281AC8"/>
</linearGradient>
<linearGradient id="paint3_linear_1523_277" x1="7.59781" y1="9.59731" x2="7.75089" y2="14.4039" gradientUnits="userSpaceOnUse">
<stop stop-color="#FD749B"/>
<stop offset="1" stop-color="#281AC8"/>
</linearGradient>
</defs>
</svg>
