<svg width="1027" height="307" viewBox="0 0 1027 307" fill="none" xmlns="http://www.w3.org/2000/svg">
<path d="M779.678 130.073C802.09 130.073 820.259 115.205 820.259 96.864C820.259 78.5231 802.09 63.6548 779.678 63.6548C757.265 63.6548 739.096 78.5231 739.096 96.864C739.096 115.205 757.265 130.073 779.678 130.073Z" fill="#D8D8D8"/>
<path d="M152.077 172.16C188.691 172.16 218.373 147.87 218.373 117.907C218.373 87.9445 188.691 63.6548 152.077 63.6548C115.462 63.6548 85.7806 87.9445 85.7806 117.907C85.7806 147.87 115.462 172.16 152.077 172.16Z" fill="#D8D8D8"/>
<path d="M466.28 238.579C488.693 238.579 506.862 223.711 506.862 205.37C506.862 187.029 488.693 172.16 466.28 172.16C443.868 172.16 425.699 187.029 425.699 205.37C425.699 223.711 443.868 238.579 466.28 238.579Z" fill="#D8D8D8"/>
<path d="M41.1817 247.128C63.594 247.128 81.7629 232.26 81.7629 213.919C81.7629 195.578 63.594 180.709 41.1817 180.709C18.7693 180.709 0.600494 195.578 0.600494 213.919C0.600494 232.26 18.7693 247.128 41.1817 247.128Z" fill="#D8D8D8"/>
<path d="M889.771 210.96C912.183 210.96 930.352 196.091 930.352 177.75C930.352 159.41 912.183 144.541 889.771 144.541C867.359 144.541 849.19 159.41 849.19 177.75C849.19 196.091 867.359 210.96 889.771 210.96Z" fill="#D8D8D8"/>
<path d="M790.929 306.312C813.342 306.312 831.511 291.444 831.511 273.103C831.511 254.762 813.342 239.894 790.929 239.894C768.517 239.894 750.348 254.762 750.348 273.103C750.348 291.444 768.517 306.312 790.929 306.312Z" fill="#D8D8D8"/>
<path d="M986.201 66.9431C1008.61 66.9431 1026.78 52.0748 1026.78 33.7339C1026.78 15.3929 1008.61 0.524658 986.201 0.524658C963.789 0.524658 945.62 15.3929 945.62 33.7339C945.62 52.0748 963.789 66.9431 986.201 66.9431Z" fill="#D8D8D8"/>
<path d="M636.641 183.998C659.053 183.998 677.222 169.129 677.222 150.788C677.222 132.447 659.053 117.579 636.641 117.579C614.228 117.579 596.059 132.447 596.059 150.788C596.059 169.129 614.228 183.998 636.641 183.998Z" fill="#D8D8D8"/>
<path d="M297.126 132.047C315.322 132.047 330.073 119.975 330.073 105.085C330.073 90.1941 315.322 78.1228 297.126 78.1228C278.93 78.1228 264.179 90.1941 264.179 105.085C264.179 119.975 278.93 132.047 297.126 132.047Z" fill="#D8D8D8"/>
<path d="M739.098 198.464C751.081 198.464 760.795 190.515 760.795 180.709C760.795 170.903 751.081 162.953 739.098 162.953C727.115 162.953 717.401 170.903 717.401 180.709C717.401 190.515 727.115 198.464 739.098 198.464Z" fill="#D8D8D8"/>
<path d="M486.771 135.992C504.079 135.992 518.11 124.51 518.11 110.346C518.11 96.1814 504.079 84.699 486.771 84.699C469.462 84.699 455.431 96.1814 455.431 110.346C455.431 124.51 469.462 135.992 486.771 135.992Z" fill="#D8D8D8"/>
<path d="M253.73 228.714C265.713 228.714 275.427 220.765 275.427 210.959C275.427 201.153 265.713 193.204 253.73 193.204C241.747 193.204 232.033 201.153 232.033 210.959C232.033 220.765 241.747 228.714 253.73 228.714Z" fill="#D8D8D8"/>
<path d="M363.019 185.97C378.552 185.97 391.144 175.665 391.144 162.954C391.144 150.242 378.552 139.938 363.019 139.938C347.485 139.938 334.893 150.242 334.893 162.954C334.893 175.665 347.485 185.97 363.019 185.97Z" fill="#D8D8D8"/>
</svg>
