<svg width="12" height="12" viewBox="0 0 12 12" fill="none" xmlns="http://www.w3.org/2000/svg">
<path d="M5.18574 4.33935C5.18574 4.61864 5.18574 4.88935 5.27383 5.14286C4.34785 6.22997 1.90293 9.10243 1.6752 9.32157C1.62993 9.36218 1.59373 9.41186 1.56893 9.46738C1.54413 9.52291 1.53129 9.58303 1.53125 9.64384C1.53125 9.82645 1.64297 10.0026 1.7375 10.1015C1.8793 10.2497 2.48516 10.8104 2.59687 10.703C2.92773 10.3808 2.99434 10.2948 3.12969 10.1616C3.33379 9.96181 3.1082 9.5536 3.1791 9.38817C3.25 9.22274 3.3252 9.19052 3.44766 9.16473C3.57012 9.13895 3.78711 9.22704 3.95684 9.22919C4.13516 9.23134 4.23184 9.15614 4.36504 9.03153C4.47246 8.9327 4.5498 8.84032 4.55195 8.69638C4.55625 8.50302 4.27695 8.24735 4.48535 8.04325C4.69375 7.83915 4.99453 8.17645 5.21582 8.15067C5.43711 8.12489 5.70566 7.81767 5.73359 7.68661C5.76152 7.55556 5.48223 7.21825 5.52519 7.02704C5.54023 6.96259 5.67129 6.8122 5.77012 6.79071C5.86895 6.76923 6.30723 6.93895 6.40605 6.91747C6.52637 6.89169 6.66602 6.76493 6.77988 6.69403C7.11289 6.83798 7.41582 6.89599 7.80469 6.89599C9.27637 6.89599 10.4687 5.74872 10.4687 4.33505C10.4687 2.92138 9.27637 1.77905 7.80469 1.77905C6.33301 1.77905 5.18574 2.92567 5.18574 4.33935ZM9.09375 3.84155C9.09375 3.97753 9.05343 4.11045 8.97788 4.22351C8.90234 4.33657 8.79497 4.42468 8.66934 4.47672C8.54372 4.52875 8.40549 4.54237 8.27212 4.51584C8.13876 4.48931 8.01626 4.42384 7.92011 4.32769C7.82397 4.23154 7.75849 4.10904 7.73196 3.97568C7.70543 3.84231 7.71905 3.70408 7.77108 3.57846C7.82312 3.45283 7.91124 3.34546 8.02429 3.26992C8.13735 3.19437 8.27027 3.15405 8.40625 3.15405C8.58859 3.15405 8.76345 3.22649 8.89239 3.35542C9.02132 3.48435 9.09375 3.65922 9.09375 3.84155Z" fill="white"/>
</svg>
