<svg width="23" height="16" viewBox="0 0 23 16" fill="none" xmlns="http://www.w3.org/2000/svg">
<path d="M21.1277 1.62154C21.1197 1.59562 21.1008 1.57178 21.0733 1.55278C21.0458 1.53379 21.0108 1.52045 20.9724 1.51431C18.4107 1.09478 12.4917 2.5898 9.28491 4.73696C8.71295 5.11699 8.19152 5.52968 7.72655 5.97036C6.73765 5.91177 5.74875 5.96069 4.90593 6.20679C2.52794 6.90786 1.83557 8.73716 1.64269 9.52407C1.63175 9.56714 1.63588 9.61133 1.65475 9.65315C1.67362 9.69497 1.70672 9.73329 1.75144 9.76509C1.79616 9.79689 1.85129 9.82131 1.91249 9.83643C1.97368 9.85154 2.03928 9.85694 2.10412 9.8522L5.92283 9.57007C5.92555 9.76292 5.94292 9.95555 5.97487 10.1472C5.99409 10.2803 6.0823 10.4047 6.22418 10.4988L7.70293 11.487C7.8435 11.5819 8.02913 11.6409 8.22778 11.654C8.51232 11.6753 8.79829 11.6869 9.0846 11.6888L8.66559 14.2435C8.6586 14.2869 8.66672 14.3308 8.68932 14.3718C8.71192 14.4128 8.74837 14.4497 8.79583 14.4796C8.84328 14.5095 8.90045 14.5317 8.96284 14.5444C9.02524 14.557 9.09116 14.5599 9.15545 14.5526C10.328 14.4266 13.0638 13.9628 14.1043 12.37C14.4717 11.8054 14.5469 11.1462 14.4621 10.4871C15.1216 10.1756 15.7393 9.82622 16.3082 9.44292C19.5251 7.29897 21.7444 3.42271 21.1277 1.62154ZM13.0988 6.8853C12.8051 6.68867 12.605 6.4381 12.5239 6.16529C12.4427 5.89248 12.4842 5.60968 12.6431 5.35267C12.802 5.09566 13.071 4.87598 13.4163 4.72142C13.7616 4.56686 14.1675 4.48436 14.5828 4.48436C14.9981 4.48436 15.404 4.56686 15.7493 4.72142C16.0946 4.87598 16.3637 5.09566 16.5225 5.35267C16.6814 5.60968 16.7229 5.89248 16.6418 6.16529C16.5606 6.4381 16.3606 6.68867 16.0668 6.8853C15.872 7.01596 15.6407 7.11962 15.3861 7.19034C15.1314 7.26106 14.8585 7.29746 14.5828 7.29746C14.3072 7.29746 14.0342 7.26106 13.7796 7.19034C13.5249 7.11962 13.2936 7.01596 13.0988 6.8853Z" fill="#4FD1C5"/>
<path d="M7.60289 12.2028C7.3632 12.3636 6.97875 12.4263 6.51601 12.4799C5.47638 12.5986 4.55833 11.9968 4.74509 11.2928C4.81638 11.0259 5.0272 10.6518 5.15841 10.5639C5.18709 10.5451 5.20618 10.5207 5.21296 10.4941C5.21975 10.4676 5.21389 10.4403 5.19622 10.4162C5.17855 10.392 5.14996 10.3722 5.11451 10.3595C5.07907 10.3469 5.03857 10.342 4.99877 10.3457C4.41739 10.3933 3.87653 10.5699 3.46228 10.8472C2.43401 11.5366 2.33691 14.0945 2.33691 14.0945C2.33691 14.0945 6.1578 14.0294 7.18607 13.3401C7.60142 13.0628 7.86534 12.7 7.93529 12.31C7.95147 12.1875 7.72885 12.1146 7.60289 12.2028Z" fill="#4FD1C5"/>
</svg>
